# xmcd
#
# Track frame offsets:
# 150
# 16677
# 33550
# 53392
# 69675
# 90290
# 105982
# 122995
# 144581
# 160797
# 174695
#
# Disc length: 2750 seconds
#
#
# Revision: 0
# Processed by: cddbd v1.5.2PL0 Copyright (c) Steve Scherf et al.
# Submitted via: Nero 7, 11, 10, 0 
#
DISCID=830abc0b
DTITLE=Jimmy C. and Jumpin' Blue - Slippery Places
DYEAR=1900
DGENRE=Blues
TTITLE0=Warm Lady On A Cold Night
TTITLE1=Bringin' It Up Is Bringin' Us Down
TTITLE2=Slippery Places
TTITLE3=It Don't Matter
TTITLE4=She Loves Me Not
TTITLE5=Nothin' But Broke
TTITLE6=Tear It Down
TTITLE7=If Dumb Were Dollars
TTITLE8=The World Rolls On
TTITLE9=Round Midnite
TTITLE10=Frieda
EXTD=
EXTT0=Warm Lady On A Cold Night
EXTT1=Bringin' It Up Is Bringin' Us Down
EXTT2=Slippery Places
EXTT3=It Don't Matter
EXTT4=She Loves Me Not
EXTT5=Nothin' But Broke
EXTT6=Tear It Down
EXTT7=If Dumb Were Dollars
EXTT8=The World Rolls On
EXTT9=Round Midnite
EXTT10=Frieda
PLAYORDER=
